<mxfile host="app.diagrams.net" modified="2020-05-20T07:05:51.950Z" agent="5.0 (Windows NT 10.0; Win64; x64) AppleWebKit/537.36 (KHTML, like Gecko) Chrome/81.0.4044.138 Safari/537.36" etag="srQ3fuF3SGUD3x6xoYvv" version="13.1.3" type="github">
  <diagram id="UU4NM2fWDo4VktWfeyfh" name="Page-1">
    <mxGraphModel dx="1038" dy="548" grid="1" gridSize="10" guides="1" tooltips="1" connect="1" arrows="1" fold="1" page="1" pageScale="1" pageWidth="827" pageHeight="1169" math="0" shadow="0">
      <root>
        <mxCell id="0" />
        <mxCell id="1" parent="0" />
        <mxCell id="7lW2pcrHVF9dbwSNO-Ns-1" value="" style="rounded=0;whiteSpace=wrap;html=1;" parent="1" vertex="1">
          <mxGeometry x="195" y="260" width="360" height="440" as="geometry" />
        </mxCell>
        <mxCell id="7lW2pcrHVF9dbwSNO-Ns-2" value="" style="rounded=0;whiteSpace=wrap;html=1;" parent="1" vertex="1">
          <mxGeometry x="220" y="296" width="310" height="60" as="geometry" />
        </mxCell>
        <mxCell id="7lW2pcrHVF9dbwSNO-Ns-3" value="" style="endArrow=none;html=1;exitX=0;exitY=0.75;exitDx=0;exitDy=0;entryX=1;entryY=0.75;entryDx=0;entryDy=0;" parent="1" edge="1">
          <mxGeometry width="50" height="50" relative="1" as="geometry">
            <mxPoint x="195" y="570.5" as="sourcePoint" />
            <mxPoint x="555" y="570.5" as="targetPoint" />
          </mxGeometry>
        </mxCell>
        <mxCell id="7lW2pcrHVF9dbwSNO-Ns-4" value="" style="endArrow=none;html=1;entryX=0.25;entryY=0;entryDx=0;entryDy=0;exitX=0.25;exitY=1;exitDx=0;exitDy=0;" parent="1" source="7lW2pcrHVF9dbwSNO-Ns-2" target="7lW2pcrHVF9dbwSNO-Ns-2" edge="1">
          <mxGeometry width="50" height="50" relative="1" as="geometry">
            <mxPoint x="390" y="430" as="sourcePoint" />
            <mxPoint x="440" y="380" as="targetPoint" />
          </mxGeometry>
        </mxCell>
        <mxCell id="7lW2pcrHVF9dbwSNO-Ns-5" value="row_byte_size" style="text;html=1;strokeColor=none;fillColor=none;align=center;verticalAlign=middle;whiteSpace=wrap;rounded=0;" parent="1" vertex="1">
          <mxGeometry x="240" y="312" width="40" height="20" as="geometry" />
        </mxCell>
        <mxCell id="7lW2pcrHVF9dbwSNO-Ns-6" value="data" style="text;html=1;strokeColor=none;fillColor=none;align=center;verticalAlign=middle;whiteSpace=wrap;rounded=0;" parent="1" vertex="1">
          <mxGeometry x="394" y="312" width="40" height="20" as="geometry" />
        </mxCell>
        <mxCell id="7lW2pcrHVF9dbwSNO-Ns-7" value="one row" style="text;html=1;strokeColor=none;fillColor=none;align=center;verticalAlign=middle;whiteSpace=wrap;rounded=0;" parent="1" vertex="1">
          <mxGeometry x="220" y="274" width="60" height="20" as="geometry" />
        </mxCell>
        <mxCell id="7lW2pcrHVF9dbwSNO-Ns-8" value="" style="ellipse;whiteSpace=wrap;html=1;aspect=fixed;" parent="1" vertex="1">
          <mxGeometry x="363" y="373" width="10" height="10" as="geometry" />
        </mxCell>
        <mxCell id="7lW2pcrHVF9dbwSNO-Ns-9" value="" style="ellipse;whiteSpace=wrap;html=1;aspect=fixed;" parent="1" vertex="1">
          <mxGeometry x="363" y="399" width="10" height="10" as="geometry" />
        </mxCell>
        <mxCell id="7lW2pcrHVF9dbwSNO-Ns-10" value="" style="ellipse;whiteSpace=wrap;html=1;aspect=fixed;" parent="1" vertex="1">
          <mxGeometry x="363" y="423" width="10" height="10" as="geometry" />
        </mxCell>
        <mxCell id="7lW2pcrHVF9dbwSNO-Ns-11" value="row_offsets vector" style="rounded=0;whiteSpace=wrap;html=1;" parent="1" vertex="1">
          <mxGeometry x="230" y="585" width="290" height="45" as="geometry" />
        </mxCell>
        <mxCell id="7lW2pcrHVF9dbwSNO-Ns-12" value="length of row_offsets" style="rounded=0;whiteSpace=wrap;html=1;" parent="1" vertex="1">
          <mxGeometry x="230" y="640" width="290" height="45" as="geometry" />
        </mxCell>
        <mxCell id="7lW2pcrHVF9dbwSNO-Ns-13" value="one row" style="rounded=0;whiteSpace=wrap;html=1;" parent="1" vertex="1">
          <mxGeometry x="220" y="465" width="310" height="60" as="geometry" />
        </mxCell>
      </root>
    </mxGraphModel>
  </diagram>
</mxfile>
